<?xml version="1.0" encoding="utf-8"?>
<!-- Generator: Adobe Illustrator 27.2.0, SVG Export Plug-In . SVG Version: 6.00 Build 0)  -->
<svg version="1.1"
	 id="svg8358" xmlns:dc="http://purl.org/dc/elements/1.1/" xmlns:rdf="http://www.w3.org/1999/02/22-rdf-syntax-ns#" xmlns:cc="http://creativecommons.org/ns#" xmlns:svg="http://www.w3.org/2000/svg"
	 xmlns="http://www.w3.org/2000/svg" xmlns:xlink="http://www.w3.org/1999/xlink" x="0px" y="0px" viewBox="0 0 400 400"
	 style="enable-background:new 0 0 400 400;" xml:space="preserve">
<style type="text/css">
	.st0{stroke:#FFFFFF;stroke-miterlimit:10;}
	.st1{fill-rule:evenodd;clip-rule:evenodd;fill:#FFF500;}
	.st2{fill-rule:evenodd;clip-rule:evenodd;fill:#DA251D;}
	.st3{fill-rule:evenodd;clip-rule:evenodd;}
	.st4{opacity:0.8761;fill:#FFFFFF;enable-background:new    ;}
</style>
<path class="st0" d="M199.4,380.7c87.1,0,155.8-67.8,155.8-129.9l0-216.3H44.7v216.2C44.7,312.1,112.3,380.7,199.4,380.7z"/>
<path id="path4597" class="st1" d="M63.5,54.6v192.7c0,54.8,59.5,115.9,136,115.9s137-60.4,137-115.8l0-192.9L63.5,54.6z"/>
<path id="path8150" class="st2" d="M175.2,64.9c1.8-0.4,4.3-0.6,5.5,0.1c18.7,11.1,16.7,29.1,7.2,39.5c-2.1-3.8-7.3-5.7-11.9-7
	c0.5-0.4,0.8-1.3,1.5-1.1c7.9,1.9,12.1-0.7,12.9-3.1c-1.6,0.4-4.7-1.3-5.8-2.2c-2.3-2-3.6-2.9-6.9-3.3c3.1-0.7,5.8,0,7.8,1.5
	c2.7,1.9,4.7,1.2,6.2,1.7c5.1-14.1-12.3-15-26.1-9.6C164.1,69.2,170.1,66.1,175.2,64.9L175.2,64.9z"/>
<path id="use8156" class="st2" d="M235.1,278.2c-0.5-5,1.7-8.4,4.7-10.3c3.6-2.2,9.9-1.8,12.4-1.3c0.3,0.6-0.1,1.7,0.5,2.2
	c2,2,7.8,14.4,12.3,18c14.3-1.1,24-6.5,34.5,3.7c-7.7-1.8-13.6-3.1-20.1-0.1c-2.5,0.7-5.4,1.2-8,2.1c-1,0.3-0.8,1.7,0.2,2.1
	c3.9,1.5,8.9,3.1,12.8,4.5c6,2.8,8.2,6.6,9.2,10.3c-3.8-2.8-6.7-4.5-10-6.3c-3.7-2.1-7.8-4.1-12.6-3.9c-1.1,0.1-3.8,0.3-4.9,0.6
	c-7.3,6.1-10.2,15.6-9.6,24.3c-5.1-4.3-5.7-10.3-3.1-15.6c1.6-3.4,3.2-6.5,3.9-9.6c0.2-1.1-0.1-1.6-1.2-1.7
	c-6.7,0.5-10.9,3.4-15,6.8c-2.6,0.3-6.8,0.9-6.8,0.9c3.3-6.4,12.2-7.8,15.7-12.7c1.3-2,1.4-2.4,0.2-4.9c-2-2.7-4.4-5.5-7.6-5.8
	C240.1,281.4,237.4,279.8,235.1,278.2L235.1,278.2z M163.9,276.1c0.5-5-1.7-8.4-4.7-10.3c-3.6-2.2-9.9-1.8-12.4-1.3
	c-0.3,0.6,0.1,1.7-0.5,2.2c-2,2-7.8,14.4-12.3,18c-14.3-1.1-24-6.5-34.5,3.7c7.7-1.8,13.6-3.1,20.1-0.1c2.5,0.7,5.4,1.2,8,2.1
	c1,0.3,0.8,1.7-0.2,2.1c-3.9,1.5-8.9,3.1-12.8,4.5c-6,2.8-8.2,6.6-9.2,10.3c3.8-2.8,6.7-4.5,10-6.3c3.7-2.1,7.8-4.1,12.6-3.9
	c1.1,0.1,3.8,0.3,4.9,0.6c7.3,6.1,10.2,15.6,9.6,24.3c5.1-4.3,5.7-10.3,3.1-15.6c-1.6-3.4-3.2-6.5-3.9-9.6c-0.2-1.1,0.1-1.6,1.2-1.7
	c6.7,0.5,10.9,3.4,15,6.8c2.6,0.3,6.8,0.9,6.8,0.9c-3.3-6.4-12.2-7.8-15.7-12.7c-1.3-2-1.4-2.4-0.2-4.9c2-2.7,4.4-5.5,7.6-5.8
	C158.9,279.3,161.6,277.7,163.9,276.1L163.9,276.1z"/>
<path id="use8158" class="st3" d="M299.7,269.8l-10.3-7.5l0.4-114.4l-9.1,3.9l0.4,104.5l-10.3-6.5l0.3-92.7l-8.6,1.9l-0.7,84.1
	l-10.3-6.5l-0.3-74.4l-8.4,1.9l0.1,66.2l-10.3-6.5l3.7-72.7c19.3,1,39.9-6.7,55.7-17.4c10.6-6.9,17.2-19,13.5-33.5
	c-0.4-1.7-3.5-7.9-4.9-8.1c5.3,37.4-31.2,51.1-64.3,54l0.2-2.2c19.9-3.3,46.1-6.3,58.6-34.9c0,0,3.5-15.4,1.7-18.2
	c-7.7,7.1-38.1,4.2-38-7.1c0.1-13.9,32.5-16.7,47.4-2.9c7.5,0.1,11.3-4.2,17.4-7.8c-3.5,8.4-8.4,13.5-17.3,17
	c10.4,5.4,11.9,16.4,12.2,23.3c0.7,14.1-0.1,21.8-0.1,31.1L318.5,284l-9.8-7.5l-0.1-138.9c-0.4-2,2.5-6.2,3.4-9.9
	c0.5-2.1,0.1-4.2-0.3-4.4c0,0-1.9,5.1-4.8,9.6c-2.5,3.9-7,5.5-7.8,7.9C299.1,140.9,299.8,228.5,299.7,269.8L299.7,269.8z
	 M251.3,264.1c-13.1-12.3-24.7-28.2-33.2-42c1.3-3.8,2.8-10.6,5-15.5c6.7-24.7,10.3-46.1,8.2-68.4c-1.2-12.9-7.1-28.8-8.7-42
	c-0.6-4.5-3.1-14.5,1.7-16.1c3.2,0.2,12.3-2.5,13-7.2c-11.6,3.1-21.4-6.9-32-11.5c-6.9-3-14.8-3-21.8,2.6
	c6.6,3.4,10.2,7.3,12.4,13.1c0.7,1.8,2.6,9.5,1.5,14c-1.2,5.2-3.2,8.3-6.1,13.3c-11.3,19.6-21.9,39.1-20.4,65c1,17.3,5.8,34.3,10,51
	c0,0-23.8,29.7-34,42.5c10.4-1.4,19.8,1.5,19,13c9.2-9,16-20.3,25-29.5c0.5-0.5,1,2,1.1,3.1c0.7,16.2-1.4,35.3-7.4,48.1
	c-9.6,16.4-17.2,19.3-32.5,19.6c16.4,13.7,30.5-3.9,37.4-11.8c0.3,11.8,2.7,25.1,5.5,34.2c1.2,4.3,6.5,3.2,7.4-0.2
	c2.4-9.2,5.1-22.8,4.7-33.1c8.5,13.2,25.5,22.2,36.7,11c-14.4,1.9-28-7-32.6-19.7c-5-14.1-7-37.3-6-49.2c0-0.6,0.6-2.9,1-2.5
	c9.8,9.5,19.1,21.5,26.9,30.9C235,264.4,239.9,263.9,251.3,264.1L251.3,264.1z M101.3,140.9v128.9l10.3-7.5V148.4l8.4,4.7v103.6
	l10.3-6.5v-92.4l8.4,2.8v83.1l10.3-6.5v-74.7l8.4,1.9v66.3l10.3-6.5v-73.1c-19.3,1-38.3-6.4-54.1-17.1
	c-10.6-7.4-21.5-20.5-17.8-34.3c0.4-1.7,3.5-7.9,4.9-8.1c-2.5,35.5,36.4,53.5,67.4,53.7l1.1-1.8c-20-0.9-49.5-10.3-62.6-38.6
	c0,0-2.9-10.1-1.1-12.8c11.6,4.5,34.7,2.9,36.1-8.1c1.8-14.2-41.9-16.9-45.5-3.4c-8.7,1.2-13.8-4.3-19.9-7.8
	c3.5,8.4,10.4,14,19.3,17.5C85,95.5,82,106,81.7,112.9c-0.7,14.1,1.1,21.5,1.1,30.8l-0.2,141l9.3-7.5V137.2c-0.4-3-4.1-6.8-4.8-10.7
	c-0.1-1,1-3,1-3C90.4,131.6,100.1,137.7,101.3,140.9L101.3,140.9z"/>
<path id="path8154" class="st4" d="M200.2,68.5c0,1.1-0.9,1.9-1.9,1.9c-1.1,0-1.9-0.9-1.9-1.9c0-1.1,0.9-1.9,1.9-1.9
	C199.3,66.6,200.2,67.5,200.2,68.5z"/>
</svg>
